<svg xmlns="http://www.w3.org/2000/svg" width="25.063" height="28.844" viewBox="0 0 25.063 28.844">
    <g transform="translate(-4.968 -1.188)">
        <path d="M17.5,21.875a2.734,2.734,0,1,0-2.734-2.734A2.734,2.734,0,0,0,17.5,21.875Z" fill="#fff" stroke="#fff" stroke-linecap="round" stroke-linejoin="round" stroke-width="1"/>
        <path d="M17.5,21.875v3.281" fill="none" stroke="#fff" stroke-linecap="round" stroke-linejoin="round" stroke-width="1"/>
        <path d="M28.437,12.031H6.562a1.094,1.094,0,0,0-1.094,1.094V28.438a1.094,1.094,0,0,0,1.094,1.094H28.437a1.094,1.094,0,0,0,1.094-1.094V13.125A1.094,1.094,0,0,0,28.437,12.031Z" fill="#fff" stroke="#fff" stroke-linecap="round" stroke-linejoin="round" stroke-width="1"/>
        <path d="M12.577,12.031V7.109a4.922,4.922,0,1,1,9.844,0v4.922" fill="none" stroke="#fff" stroke-linecap="round" stroke-linejoin="round" stroke-width="2"/>
        <circle cx="3" cy="3" r="3" transform="translate(14.5 16.5)" fill="#3e3e3e" stroke="#3e3e3e" stroke-width="1"/>
        <line y2="3" transform="translate(17.5 22.5)" fill="none" stroke="#3e3e3e" stroke-linecap="round" stroke-width="1"/>
    </g>
</svg>