<svg xmlns="http://www.w3.org/2000/svg" width="27.25" height="22.875" viewBox="0 0 27.25 22.875"><g transform="translate(-0.875 -0.063)"><path d="M26.531.563H2.469A1.094,1.094,0,0,0,1.375,1.656V21.344a1.094,1.094,0,0,0,1.094,1.094H26.531a1.094,1.094,0,0,0,1.094-1.094V1.656A1.094,1.094,0,0,0,26.531.563Z" fill="#fff" stroke="#fff" stroke-linecap="round" stroke-linejoin="round" stroke-width="1"/><path d="M17.781,9.188H23.25" fill="none" stroke="#3e3e3e" stroke-linecap="round" stroke-linejoin="round" stroke-width="1"/><path d="M17.781,13.563H23.25" fill="none" stroke="#3e3e3e" stroke-linecap="round" stroke-linejoin="round" stroke-width="1"/><path d="M9.592,13.563a3.281,3.281,0,1,0-3.281-3.281A3.281,3.281,0,0,0,9.592,13.563Z" fill="none" stroke="#3e3e3e" stroke-linecap="round" stroke-linejoin="round" stroke-width="1"/><path d="M5.355,16.844a4.376,4.376,0,0,1,8.474,0" fill="none" stroke="#3e3e3e" stroke-linecap="round" stroke-linejoin="round" stroke-width="1"/></g></svg>