<svg xmlns="http://www.w3.org/2000/svg" width="30.958" height="26.214" viewBox="0 0 30.958 26.214"><g transform="translate(-0.521 -1.286)"><path d="M19,26V20a1,1,0,0,0-1-1H14a1,1,0,0,0-1,1v6a1,1,0,0,1-1,1H6a1,1,0,0,1-1-1V14.442a1,1,0,0,1,.327-.74l10-9.092a1,1,0,0,1,1.345,0l10,9.092a1,1,0,0,1,.327.74V26a1,1,0,0,1-1,1H20a1,1,0,0,1-1-1Z" fill="#fff" stroke="#fff" stroke-linecap="round" stroke-linejoin="round" stroke-width="1"/><path d="M15.007,2.6,1.882,12.843a.9.9,0,0,0-.34.5.729.729,0,0,0,.095.551,1.143,1.143,0,0,0,.5.424,1.749,1.749,0,0,0,.739.159H29.125a1.749,1.749,0,0,0,.739-.159,1.143,1.143,0,0,0,.5-.424.729.729,0,0,0,.095-.551.9.9,0,0,0-.34-.5L16.993,2.6a1.434,1.434,0,0,0-.451-.231,1.837,1.837,0,0,0-1.084,0A1.432,1.432,0,0,0,15.007,2.6Z" fill="#fff" stroke="#fff" stroke-linecap="round" stroke-linejoin="round" stroke-width="2"/></g></svg>