<svg xmlns="http://www.w3.org/2000/svg" width="26.635" height="24.823" viewBox="0 0 26.635 24.823"><g transform="translate(-0.5 -0.499)"><path d="M16,7V22.858a1.025,1.025,0,0,0,.457.853l1.409.939a1.025,1.025,0,0,0,1.564-.6l1.7-6.792" fill="#fff"/><path d="M16,7V22.858a1.025,1.025,0,0,0,.457.853l1.409.939a1.025,1.025,0,0,0,1.564-.6l1.7-6.792" fill="none" stroke="#3e3e3e" stroke-linecap="round" stroke-linejoin="round" stroke-width="1"/><path d="M21.508,17.128a5.127,5.127,0,0,0,0-10.254H16.381a23.315,23.315,0,0,1-13.7-5.633A1.025,1.025,0,0,0,1,2.025V21.977a1.025,1.025,0,0,0,1.685.784,23.315,23.315,0,0,1,13.7-5.633Z" fill="#fff" stroke="#3e3e3e" stroke-linecap="round" stroke-linejoin="round" stroke-width="1"/></g></svg>