<svg xmlns="http://www.w3.org/2000/svg" width="24.346" height="24.346" viewBox="0 0 24.346 24.346"><g transform="translate(-2.827 -2.827)"><path d="M14.4,5.174,12.188,3.516a.937.937,0,0,0-.841-.146,12.109,12.109,0,0,0-1.985.821.938.938,0,0,0-.493.7L8.477,7.627q-.224.2-.438.412t-.412.438h0l-2.736.391a.937.937,0,0,0-.7.492,12.111,12.111,0,0,0-.823,1.985.938.938,0,0,0,.146.843L5.174,14.4q-.018.3-.018.6t.018.6h0L3.516,17.812a.937.937,0,0,0-.146.841,12.111,12.111,0,0,0,.821,1.986.938.938,0,0,0,.7.493l2.736.391q.2.224.412.438t.438.412h0l.391,2.736a.937.937,0,0,0,.492.7,12.112,12.112,0,0,0,1.985.823.938.938,0,0,0,.843-.146L14.4,24.825q.3.018.6.018t.6-.018h0l2.211,1.658a.937.937,0,0,0,.841.146,12.114,12.114,0,0,0,1.985-.821.938.938,0,0,0,.493-.7l.391-2.736q.224-.2.438-.412t.412-.438h0l2.736-.391a.936.936,0,0,0,.7-.492,12.111,12.111,0,0,0,.823-1.985.937.937,0,0,0-.146-.843L24.826,15.6q.018-.3.018-.6t-.018-.6h0l1.658-2.211a.937.937,0,0,0,.146-.841,12.108,12.108,0,0,0-.821-1.985.938.938,0,0,0-.7-.493l-2.736-.391q-.2-.224-.412-.438t-.438-.412h0l-.391-2.736a.937.937,0,0,0-.492-.7,12.111,12.111,0,0,0-1.985-.823.938.938,0,0,0-.843.146L15.6,5.174q-.3-.018-.6-.018t-.6.018Z" fill="#fff" stroke="#fff" stroke-linecap="round" stroke-linejoin="round" stroke-width="1"/><path d="M15,20.625A5.625,5.625,0,1,0,9.375,15,5.625,5.625,0,0,0,15,20.625Z" fill="#3e3e3e" stroke="#3e3e3e" stroke-linecap="round" stroke-linejoin="round" stroke-width="1"/></g></svg>