<svg width="58" height="66" viewBox="0 0 58 66" fill="none" xmlns="http://www.w3.org/2000/svg">
<path d="M29.0022 46.75C25.6367 46.75 22.9084 44.0217 22.9084 40.6562C22.9084 37.2908 25.6367 34.5625 29.0022 34.5625C32.3677 34.5625 35.0959 37.2908 35.0959 40.6562C35.0959 44.0217 32.3677 46.75 29.0022 46.75Z" stroke="white" stroke-width="4" stroke-linecap="round" stroke-linejoin="round"/>
<path d="M29.0022 46.75V54.0625" stroke="white" stroke-width="4" stroke-linecap="round" stroke-linejoin="round"/>
<path d="M4.62719 24.8125H53.3772C54.7234 24.8125 55.8147 25.9038 55.8147 27.25V61.375C55.8147 62.7212 54.7234 63.8125 53.3772 63.8125H4.62719C3.281 63.8125 2.18969 62.7212 2.18969 61.375V27.25C2.18969 25.9038 3.281 24.8125 4.62719 24.8125Z" stroke="white" stroke-width="4" stroke-linecap="round" stroke-linejoin="round"/>
<path d="M39.9709 24.8125V13.8438C39.9709 10.9347 38.8153 8.14471 36.7583 6.08767C34.7012 4.03063 31.9113 2.875 29.0022 2.875C26.0931 2.875 23.3032 4.03063 21.2461 6.08767C19.1891 8.14471 18.0334 10.9347 18.0334 13.8438" stroke="white" stroke-width="4" stroke-linecap="round" stroke-linejoin="round"/>
</svg>
