<svg width="33" height="38" viewBox="0 0 33 38" fill="none" xmlns="http://www.w3.org/2000/svg">
<path d="M23.134 18.477C25.284 18.8783 26.918 19.724 28.036 21.014C29.1827 22.304 29.756 23.981 29.756 26.045C29.756 28.5963 28.8243 30.56 26.961 31.936C25.0977 33.312 22.3313 34 18.662 34H5.246V3.9H17.802C21.07 3.9 23.607 4.57366 25.413 5.921C27.2477 7.23966 28.165 9.13166 28.165 11.597C28.165 13.317 27.7063 14.7647 26.789 15.94C25.9003 17.1153 24.682 17.961 23.134 18.477ZM7.439 5.792V17.789H17.716C20.3533 17.789 22.3743 17.2873 23.779 16.284C25.2123 15.252 25.929 13.747 25.929 11.769C25.929 9.81967 25.2123 8.34333 23.779 7.34C22.3743 6.308 20.3533 5.792 17.716 5.792H7.439ZM18.662 32.108C21.586 32.108 23.7933 31.6063 25.284 30.603C26.8033 29.571 27.563 27.9943 27.563 25.873C27.563 23.7517 26.8033 22.1893 25.284 21.186C23.7933 20.1827 21.586 19.681 18.662 19.681H7.439V32.108H18.662Z" fill="white"/>
<path d="M16 0L16 38" stroke="white" stroke-width="2"/>
</svg>
