<svg width="40" height="26" viewBox="0 0 40 26" fill="none" xmlns="http://www.w3.org/2000/svg">
<path d="M11.8028 0.619629L22.9577 8.47878L11.8028 16.3379V12.4084H1.57747C1.33093 12.4084 1.09448 12.3394 0.920155 12.2165C0.745826 12.0937 0.647888 11.9271 0.647888 11.7534V5.20414C0.647888 5.03044 0.745826 4.86385 0.920155 4.74103C1.09448 4.61821 1.33093 4.54921 1.57747 4.54921H11.8028V0.619629Z" fill="white" stroke="white" stroke-linecap="round" stroke-linejoin="round"/>
<path d="M28.1972 25.338L17.0423 17.4789L28.1972 9.6197V13.5493H38.4225C38.6691 13.5493 38.9055 13.6183 39.0798 13.7411C39.2542 13.8639 39.3521 14.0305 39.3521 14.2042V20.7535C39.3521 20.9272 39.2542 21.0938 39.0798 21.2166C38.9055 21.3394 38.6691 21.4084 38.4225 21.4084H28.1972V25.338Z" fill="white" stroke="white" stroke-linecap="round" stroke-linejoin="round"/>
</svg>
