<svg width="30" height="34" viewBox="0 0 30 34" fill="none" xmlns="http://www.w3.org/2000/svg">
<path d="M26.8125 32.75H3.18622C2.83812 32.75 2.50428 32.6117 2.25814 32.3656C2.012 32.1194 1.87372 31.7856 1.87372 31.4375V2.5625C1.87372 2.2144 2.012 1.88056 2.25814 1.63442C2.50428 1.38828 2.83812 1.25 3.18622 1.25H18.9375L28.125 10.4375V31.4375C28.125 31.6099 28.0911 31.7805 28.0251 31.9398C27.9591 32.099 27.8625 32.2437 27.7406 32.3656C27.6187 32.4875 27.474 32.5841 27.3148 32.6501C27.1555 32.7161 26.9849 32.75 26.8125 32.75Z" stroke="white" stroke-width="2" stroke-linecap="round" stroke-linejoin="round"/>
<path d="M18.9375 1.25V10.4375H28.1263" stroke="white" stroke-width="2" stroke-linecap="round" stroke-linejoin="round"/>
<path d="M9.75 18.3125H20.25" stroke="white" stroke-width="2" stroke-linecap="round" stroke-linejoin="round"/>
<path d="M9.75 23.5625H20.25" stroke="white" stroke-width="2" stroke-linecap="round" stroke-linejoin="round"/>
</svg>
