<svg fill="none" height="60" viewBox="0 0 80 60" width="80" xmlns="http://www.w3.org/2000/svg"><path d="m34.6236 56.7484v-11.2503c0-.4973-.1975-.9742-.5491-1.3258-.3517-.3516-.8286-.5492-1.3259-.5492h-7.5c-.4973 0-.9742.1976-1.3258.5492s-.5492.8285-.5492 1.3258v11.2503c0 .4972-.1975.9741-.5491 1.3257-.3515.3516-.8284.5492-1.3256.5493l-11.2487.0014c-.2462.0001-.49006-.0484-.71757-.1426s-.43424-.2323-.60837-.4064c-.17414-.1742-.31227-.3809-.40651-.6084s-.14275-.4713-.14275-.7176v-21.6704c0-.2612.05458-.5195.16025-.7584s.26009-.4531.45337-.6288l18.74868-17.0473c.3452-.3138.7949-.4877 1.2613-.4877.4665 0 .9162.1739 1.2614.4877l18.7513 17.0473c.1933.1757.3477.3899.4534.6288s.1603.4973.1603.7585v21.6704c0 .2462-.0485.49-.1427.7175-.0943.2275-.2324.4342-.4066.6084-.1741.1741-.3808.3122-.6083.4064s-.4714.1427-.7176.1427l-11.2514-.0015c-.4973-.0001-.9741-.1977-1.3257-.5493s-.5491-.8285-.5491-1.3257z" fill="#fff" stroke="#fff" stroke-linecap="round" stroke-linejoin="round"/><path d="m27.1388 12.8732-24.6099 19.2075c-.33394.2607-.55522.5858-.63675.9356s-.01979.7091.17768 1.034c.19747.325.52209.6014.93418.7955.41208.1941.89375.2975 1.38609.2975h49.2199c.4923 0 .974-.1034 1.3861-.2975.412-.1941.7367-.4705.9341-.7955.1975-.3249.2592-.6842.1777-1.034s-.3028-.6749-.6367-.9356l-24.61-19.2075c-.2371-.1851-.525-.3328-.8453-.4339-.3203-.101-.6662-.1532-1.0159-.1532-.3496 0-.6955.0522-1.0159.1532-.3203.1011-.6081.2488-.8453.4339z" fill="#fff" stroke="#fff" stroke-linecap="round" stroke-linejoin="round" stroke-width="2"/><path d="m61.1 38 2.7-13.5714-10.8-4.0715 18.9-20.3571-2.7 13.5714 10.8 4.0715z" fill="#fec908"/></svg>