<svg fill="none" height="22" viewBox="0 0 55 22" width="55" xmlns="http://www.w3.org/2000/svg"><circle cx="44" cy="11" r="10.5" stroke="#f6645a"/><path d="m40.1811 17c-.32 0-.48-.16-.48-.48v-9.92c0-.32.16-.48.48-.48h4.544c1.0453 0 1.8453.26133 2.4.784.5546.52267.832 1.22133.832 2.096 0 .52267-.1387.992-.416 1.408-.2667.416-.6454.7253-1.136.928 1.2586.3947 1.888 1.2533 1.888 2.576 0 .576-.128 1.0987-.384 1.568s-.6454.8427-1.168 1.12c-.5227.2667-1.1574.4-1.904.4zm4.416-6.208c.6186 0 1.0933-.1547 1.424-.464.3413-.32.512-.76267.512-1.328 0-.608-.1547-1.04533-.464-1.312-.2987-.26667-.7947-.4-1.488-.4h-3.424v3.504zm.224 5.04c.704 0 1.2213-.176 1.552-.528.3306-.3627.496-.8267.496-1.392 0-.6507-.2027-1.1413-.608-1.472-.4054-.3307-.9707-.496-1.696-.496h-3.408v3.888z" fill="#f6645a"/><g stroke="#f6645a"><path d="m43.5 4v15"/><path d="m14.4062 2.125-13.12495 9.375 13.12495 9.375v-4.6875h12.0313c.2901 0 .5683-.0823.7734-.2288s.3203-.3452.3203-.5525v-7.81245c0-.2072-.1152-.40591-.3203-.55243-.2051-.14651-.4833-.22882-.7734-.22882h-12.0313z" fill="#f6645a" stroke-linecap="round" stroke-linejoin="round"/></g></svg>