<svg width="22" height="22" viewBox="0 0 22 22" fill="none" xmlns="http://www.w3.org/2000/svg">
<circle cx="11" cy="11" r="10.5" stroke="#99FF75"/>
<path d="M7.18106 17C6.86106 17 6.70106 16.84 6.70106 16.52V6.6C6.70106 6.28 6.86106 6.12 7.18106 6.12H11.7251C12.7704 6.12 13.5704 6.38133 14.1251 6.904C14.6797 7.42667 14.9571 8.12533 14.9571 9C14.9571 9.52267 14.8184 9.992 14.5411 10.408C14.2744 10.824 13.8957 11.1333 13.4051 11.336C14.6637 11.7307 15.2931 12.5893 15.2931 13.912C15.2931 14.488 15.1651 15.0107 14.9091 15.48C14.6531 15.9493 14.2637 16.3227 13.7411 16.6C13.2184 16.8667 12.5837 17 11.8371 17H7.18106ZM11.5971 10.792C12.2157 10.792 12.6904 10.6373 13.0211 10.328C13.3624 10.008 13.5331 9.56533 13.5331 9C13.5331 8.392 13.3784 7.95467 13.0691 7.688C12.7704 7.42133 12.2744 7.288 11.5811 7.288H8.15706V10.792H11.5971ZM11.8211 15.832C12.5251 15.832 13.0424 15.656 13.3731 15.304C13.7037 14.9413 13.8691 14.4773 13.8691 13.912C13.8691 13.2613 13.6664 12.7707 13.2611 12.44C12.8557 12.1093 12.2904 11.944 11.5651 11.944H8.15706V15.832H11.8211Z" fill="#99FF75"/>
<line x1="10.5" y1="4" x2="10.5" y2="19" stroke="#99FF75"/>
</svg>
