<!-- <svg width="128" height="97" viewBox="0 0 128 97" fill="none" xmlns="http://www.w3.org/2000/svg">
<g filter="url(#filter0_d_0:1)">
<path d="M2 7C2 4.23858 4.23858 2 7 2H117C119.761 2 122 4.23858 122 7V86C122 88.7614 119.761 91 117 91H7C4.23858 91 2 88.7614 2 86V7Z" fill="#262729"/>
</g>
<circle cx="80" cy="28" r="10.5" stroke="#99FF75"/>
<line x1="79.5" y1="21" x2="79.5" y2="36" stroke="#99FF75"/>
<path d="M52.5938 19.125L65.7188 28.5L52.5938 37.875V33.1875H40.5625C40.2724 33.1875 39.9942 33.1052 39.7891 32.9587C39.584 32.8122 39.4688 32.6135 39.4688 32.4062V24.5938C39.4688 24.3865 39.584 24.1878 39.7891 24.0413C39.9942 23.8948 40.2724 23.8125 40.5625 23.8125H52.5938V19.125Z" fill="#99FF75" stroke="#99FF75" stroke-linecap="round" stroke-linejoin="round"/>
<defs>
<filter id="filter0_d_0:1" x="0" y="0" width="128" height="97" filterUnits="userSpaceOnUse" color-interpolation-filters="sRGB">
<feFlood flood-opacity="0" result="BackgroundImageFix"/>
<feColorMatrix in="SourceAlpha" type="matrix" values="0 0 0 0 0 0 0 0 0 0 0 0 0 0 0 0 0 0 127 0" result="hardAlpha"/>
<feOffset dx="2" dy="2"/>
<feGaussianBlur stdDeviation="2"/>
<feComposite in2="hardAlpha" operator="out"/>
<feColorMatrix type="matrix" values="0 0 0 0 0 0 0 0 0 0 0 0 0 0 0 0 0 0 0.25 0"/>
<feBlend mode="normal" in2="BackgroundImageFix" result="effect1_dropShadow_0:1"/>
<feBlend mode="normal" in="SourceGraphic" in2="effect1_dropShadow_0:1" result="shape"/>
</filter>
</defs>
</svg> -->

<svg width="57" height="25" viewBox="0 0 57 25" fill="none" xmlns="http://www.w3.org/2000/svg">
<circle cx="46" cy="12" r="10.5" stroke="#99FF75"/>
<path d="M42.1811 18C41.8611 18 41.7011 17.84 41.7011 17.52V7.6C41.7011 7.28 41.8611 7.12 42.1811 7.12H46.7251C47.7704 7.12 48.5704 7.38133 49.1251 7.904C49.6797 8.42667 49.9571 9.12533 49.9571 10C49.9571 10.5227 49.8184 10.992 49.5411 11.408C49.2744 11.824 48.8957 12.1333 48.4051 12.336C49.6637 12.7307 50.2931 13.5893 50.2931 14.912C50.2931 15.488 50.1651 16.0107 49.9091 16.48C49.6531 16.9493 49.2637 17.3227 48.7411 17.6C48.2184 17.8667 47.5837 18 46.8371 18H42.1811ZM46.5971 11.792C47.2157 11.792 47.6904 11.6373 48.0211 11.328C48.3624 11.008 48.5331 10.5653 48.5331 10C48.5331 9.392 48.3784 8.95467 48.0691 8.688C47.7704 8.42133 47.2744 8.288 46.5811 8.288H43.1571V11.792H46.5971ZM46.8211 16.832C47.5251 16.832 48.0424 16.656 48.3731 16.304C48.7037 15.9413 48.8691 15.4773 48.8691 14.912C48.8691 14.2613 48.6664 13.7707 48.2611 13.44C47.8557 13.1093 47.2904 12.944 46.5651 12.944H43.1571V16.832H46.8211Z" fill="#99FF75"/>
<line x1="45.5" y1="5" x2="45.5" y2="20" stroke="#99FF75"/>
<path d="M18.5938 3.125L31.7188 12.5L18.5938 21.875V17.1875H6.5625C6.27242 17.1875 5.99422 17.1052 5.7891 16.9587C5.58398 16.8122 5.46875 16.6135 5.46875 16.4062V8.59375C5.46875 8.38655 5.58398 8.18784 5.7891 8.04132C5.99422 7.89481 6.27242 7.8125 6.5625 7.8125H18.5938V3.125Z" fill="#99FF75" stroke="#99FF75" stroke-linecap="round" stroke-linejoin="round"/>
</svg>

