<svg width="218" height="220" viewBox="0 0 218 220" fill="none" xmlns="http://www.w3.org/2000/svg">
<circle cx="56" cy="155" r="10.5" stroke="#99FF75"/>
<path d="M52.1811 161C51.8611 161 51.7011 160.84 51.7011 160.52V150.6C51.7011 150.28 51.8611 150.12 52.1811 150.12H56.7251C57.7704 150.12 58.5704 150.381 59.1251 150.904C59.6797 151.427 59.9571 152.125 59.9571 153C59.9571 153.523 59.8184 153.992 59.5411 154.408C59.2744 154.824 58.8957 155.133 58.4051 155.336C59.6637 155.731 60.2931 156.589 60.2931 157.912C60.2931 158.488 60.1651 159.011 59.9091 159.48C59.6531 159.949 59.2637 160.323 58.7411 160.6C58.2184 160.867 57.5837 161 56.8371 161H52.1811ZM56.5971 154.792C57.2157 154.792 57.6904 154.637 58.0211 154.328C58.3624 154.008 58.5331 153.565 58.5331 153C58.5331 152.392 58.3784 151.955 58.0691 151.688C57.7704 151.421 57.2744 151.288 56.5811 151.288H53.1571V154.792H56.5971ZM56.8211 159.832C57.5251 159.832 58.0424 159.656 58.3731 159.304C58.7037 158.941 58.8691 158.477 58.8691 157.912C58.8691 157.261 58.6664 156.771 58.2611 156.44C57.8557 156.109 57.2904 155.944 56.5651 155.944H53.1571V159.832H56.8211Z" fill="#99FF75"/>
<path d="M56 148.5L56 161.7" stroke="#99FF75"/>
<line x1="55.5" y1="148" x2="55.5" y2="163" stroke="#99FF75"/>
<path d="M215 110.024C215 50.9163 167.084 3 107.976 3" stroke="#99FF75" stroke-width="5"/>
<path d="M110.024 217.048C50.9163 217.048 3 169.132 3 110.024C3 50.9163 50.9163 3 110.024 3" stroke="#F6645A" stroke-width="5"/>
<path d="M215 109.513C215 168.903 167.313 217.049 108.488 217.049" stroke="#F6645A" stroke-width="5"/>
</svg>
