<svg width="88" height="57" viewBox="0 0 88 57" fill="none" xmlns="http://www.w3.org/2000/svg">
<path d="M9.075 24.31V25H1.83V14.5H8.85V15.19H2.595V19.33H8.19V20.005H2.595V24.31H9.075ZM22.3056 19.795H23.0406V23.725C22.5806 24.165 22.0206 24.5 21.3606 24.73C20.7106 24.96 20.0206 25.075 19.2906 25.075C18.2506 25.075 17.3106 24.845 16.4706 24.385C15.6406 23.925 14.9856 23.29 14.5056 22.48C14.0356 21.67 13.8006 20.76 13.8006 19.75C13.8006 18.74 14.0356 17.83 14.5056 17.02C14.9856 16.21 15.6406 15.575 16.4706 15.115C17.3106 14.655 18.2556 14.425 19.3056 14.425C20.0756 14.425 20.7806 14.55 21.4206 14.8C22.0706 15.04 22.6256 15.395 23.0856 15.865L22.6056 16.375C22.1656 15.935 21.6706 15.62 21.1206 15.43C20.5806 15.23 19.9806 15.13 19.3206 15.13C18.4206 15.13 17.6056 15.33 16.8756 15.73C16.1556 16.13 15.5906 16.685 15.1806 17.395C14.7706 18.095 14.5656 18.88 14.5656 19.75C14.5656 20.61 14.7706 21.395 15.1806 22.105C15.6006 22.805 16.1706 23.36 16.8906 23.77C17.6106 24.17 18.4206 24.37 19.3206 24.37C20.5206 24.37 21.5156 24.05 22.3056 23.41V19.795ZM35.9021 22.045H29.8121L28.4771 25H27.6521L32.4821 14.5H33.2471L38.0771 25H37.2521L35.9021 22.045ZM35.6171 21.4L32.8571 15.34L30.1121 21.4H35.6171ZM44.466 15.19H40.686V14.5H49.011V15.19H45.231V25H44.466V15.19Z" fill="white"/>
<path d="M5.595 30.5C6.915 30.5 7.95 30.815 8.7 31.445C9.45 32.065 9.825 32.93 9.825 34.04C9.825 35.14 9.45 36.005 8.7 36.635C7.95 37.255 6.915 37.565 5.595 37.565H2.595V41H1.83V30.5H5.595ZM5.595 36.875C6.715 36.875 7.57 36.63 8.16 36.14C8.75 35.65 9.045 34.95 9.045 34.04C9.045 33.13 8.75 32.43 8.16 31.94C7.57 31.44 6.715 31.19 5.595 31.19H2.595V36.875H5.595ZM32.8206 30.5C34.1406 30.5 35.1756 30.815 35.9256 31.445C36.6756 32.065 37.0506 32.93 37.0506 34.04C37.0506 35.14 36.6756 36.005 35.9256 36.635C35.1756 37.255 34.1406 37.565 32.8206 37.565H29.8206V41H29.0556V30.5H32.8206ZM32.8206 36.875C33.9406 36.875 34.7956 36.63 35.3856 36.14C35.9756 35.65 36.2706 34.95 36.2706 34.04C36.2706 33.13 35.9756 32.43 35.3856 31.94C34.7956 31.44 33.9406 31.19 32.8206 31.19H29.8206V36.875H32.8206Z" fill="white"/>
<path d="M22.6177 40.31V41H15.1177V40.46L19.7377 36.05C20.3577 35.45 20.7777 34.945 20.9977 34.535C21.2277 34.115 21.3427 33.685 21.3427 33.245C21.3427 32.615 21.0927 32.105 20.5927 31.715C20.1027 31.325 19.3827 31.13 18.4327 31.13C17.0927 31.13 16.0577 31.53 15.3277 32.33L14.8027 31.835C15.6527 30.895 16.8777 30.425 18.4777 30.425C19.2577 30.425 19.9227 30.545 20.4727 30.785C21.0227 31.025 21.4327 31.355 21.7027 31.775C21.9827 32.185 22.1227 32.65 22.1227 33.17C22.1227 33.71 21.9927 34.225 21.7327 34.715C21.4727 35.195 20.9877 35.775 20.2777 36.455L16.2727 40.31H22.6177Z" fill="#FEC908"/>
<path d="M74.0737 54H58.9991C56.2377 54 53.9991 51.7614 53.9991 49V33.4998C53.9991 30.7384 56.2377 28.4998 58.9991 28.4998H74.0737" stroke="#FEC908" stroke-width="6" stroke-linecap="round"/>
<path d="M63.9824 28.5002H79.0571C81.8185 28.5002 84.0571 26.2617 84.0571 23.5002V8.00002C84.0571 5.2386 81.8185 3.00002 79.0571 3.00002H63.9824" stroke="#FEC908" stroke-width="6" stroke-linecap="round"/>
<path d="M68.5 32L69 29.5L67 28.75L70.5 25L70 27.5L72 28.25L68.5 32Z" fill="black"/>
<path d="M70.6161 24.4218V22.0167C70.6161 21.9103 70.5738 21.8084 70.4987 21.7332C70.4235 21.658 70.3215 21.6158 70.2152 21.6158H68.6118C68.5055 21.6158 68.4035 21.658 68.3283 21.7332C68.2532 21.8084 68.2109 21.9103 68.2109 22.0167V24.4218C68.2109 24.5281 68.1687 24.6301 68.0935 24.7053C68.0184 24.7804 67.9164 24.8227 67.8101 24.8227L65.4053 24.823C65.3527 24.823 65.3005 24.8126 65.2519 24.7925C65.2032 24.7724 65.159 24.7428 65.1218 24.7056C65.0846 24.6684 65.0551 24.6242 65.0349 24.5756C65.0148 24.5269 65.0044 24.4748 65.0044 24.4221V19.7893C65.0044 19.7334 65.0161 19.6782 65.0387 19.6271C65.0612 19.576 65.0943 19.5302 65.1356 19.4927L69.1438 15.8482C69.2176 15.7811 69.3138 15.7439 69.4135 15.7439C69.5132 15.7439 69.6094 15.7811 69.6832 15.8481L73.692 19.4927C73.7333 19.5302 73.7663 19.576 73.7889 19.6271C73.8115 19.6782 73.8232 19.7334 73.8232 19.7893V24.4221C73.8232 24.4748 73.8128 24.5269 73.7927 24.5756C73.7725 24.6242 73.743 24.6684 73.7058 24.7056C73.6685 24.7428 73.6243 24.7724 73.5757 24.7925C73.5271 24.8126 73.4749 24.823 73.4223 24.823L71.0169 24.8227C70.9106 24.8227 70.8086 24.7804 70.7334 24.7053C70.6583 24.6301 70.6161 24.5281 70.6161 24.4218Z" fill="white" stroke="white" stroke-linecap="round" stroke-linejoin="round"/>
<path d="M69.0158 15.0418L63.7544 19.1481C63.6831 19.2038 63.6357 19.2733 63.6183 19.3481C63.6009 19.4229 63.6141 19.4997 63.6563 19.5692C63.6985 19.6387 63.7679 19.6978 63.856 19.7393C63.9441 19.7808 64.0471 19.8029 64.1524 19.8029H74.675C74.7803 19.8029 74.8832 19.7808 74.9713 19.7393C75.0594 19.6978 75.1288 19.6387 75.1711 19.5692C75.2133 19.4997 75.2265 19.4229 75.209 19.3481C75.1916 19.2733 75.1443 19.2038 75.0729 19.1481L69.8116 15.0418C69.7609 15.0022 69.6993 14.9706 69.6309 14.949C69.5624 14.9274 69.4884 14.9163 69.4137 14.9163C69.3389 14.9163 69.265 14.9274 69.1965 14.949C69.128 14.9706 69.0665 15.0022 69.0158 15.0418Z" fill="white" stroke="white" stroke-width="2" stroke-linecap="round" stroke-linejoin="round"/>
<path d="M68.2116 32.4056V34.8107C68.2116 34.9171 68.2538 35.019 68.329 35.0942C68.4042 35.1694 68.5061 35.2116 68.6124 35.2116H70.2158C70.3222 35.2116 70.4241 35.1694 70.4993 35.0942C70.5745 35.019 70.6167 34.9171 70.6167 34.8107V32.4056C70.6167 32.2993 70.6589 32.1973 70.7341 32.1221C70.8093 32.047 70.9112 32.0047 71.0175 32.0047L73.4223 32.0044C73.475 32.0044 73.5271 32.0148 73.5758 32.0349C73.6244 32.055 73.6686 32.0846 73.7058 32.1218C73.743 32.159 73.7726 32.2032 73.7927 32.2518C73.8129 32.3005 73.8232 32.3526 73.8232 32.4052V37.0381C73.8232 37.094 73.8116 37.1492 73.789 37.2003C73.7664 37.2514 73.7334 37.2972 73.6921 37.3347L69.6838 40.9792C69.61 41.0463 69.5139 41.0835 69.4141 41.0835C69.3144 41.0835 69.2183 41.0463 69.1445 40.9792L65.1357 37.3347C65.0943 37.2972 65.0613 37.2514 65.0387 37.2003C65.0161 37.1492 65.0045 37.094 65.0045 37.0381V32.4052C65.0045 32.3526 65.0148 32.3005 65.035 32.2518C65.0551 32.2032 65.0847 32.159 65.1219 32.1218C65.1591 32.0846 65.2033 32.055 65.2519 32.0349C65.3006 32.0147 65.3527 32.0044 65.4054 32.0044L67.8108 32.0047C67.9171 32.0047 68.019 32.047 68.0942 32.1221C68.1694 32.1973 68.2116 32.2993 68.2116 32.4056Z" fill="white" stroke="white" stroke-linecap="round" stroke-linejoin="round"/>
<path d="M69.8119 41.7856L75.0732 37.6793C75.1446 37.6236 75.1919 37.554 75.2093 37.4793C75.2268 37.4045 75.2136 37.3277 75.1713 37.2582C75.1291 37.1887 75.0597 37.1296 74.9716 37.0881C74.8835 37.0466 74.7805 37.0245 74.6753 37.0245H64.1526C64.0474 37.0245 63.9444 37.0466 63.8563 37.0881C63.7682 37.1296 63.6988 37.1887 63.6566 37.2582C63.6144 37.3277 63.6012 37.4045 63.6186 37.4793C63.636 37.554 63.6833 37.6236 63.7547 37.6793L69.0161 41.7856C69.0668 41.8252 69.1283 41.8568 69.1968 41.8784C69.2653 41.9 69.3392 41.9111 69.414 41.9111C69.4887 41.9111 69.5627 41.9 69.6311 41.8784C69.6996 41.8568 69.7612 41.8252 69.8119 41.7856Z" fill="white" stroke="white" stroke-width="2" stroke-linecap="round" stroke-linejoin="round"/>
</svg>
